<svg xmlns="http://www.w3.org/2000/svg" xmlns:xlink="http://www.w3.org/1999/xlink" width="180" zoomAndPan="magnify" viewBox="0 0 135 30.000001" height="40" preserveAspectRatio="xMidYMid meet" version="1.0"><defs><g/><clipPath id="a6f5aa043f"><path d="M 2.175781 1 L 26 1 L 26 27 L 2.175781 27 Z M 2.175781 1 " clip-rule="nonzero"/></clipPath><clipPath id="e81ea5a3a3"><path d="M 127 21 L 132.820312 21 L 132.820312 27 L 127 27 Z M 127 21 " clip-rule="nonzero"/></clipPath></defs><g clip-path="url(#a6f5aa043f)"><g fill="white" fill-opacity="1"><g transform="translate(2.203943, 26.030804)"><g><path d="M 6.421875 -8.5 C 5.734375 -6.65625 5.222656 -5.242188 4.890625 -4.265625 C 4.554688 -3.296875 4.390625 -2.601562 4.390625 -2.1875 C 4.390625 -1.988281 4.4375 -1.8125 4.53125 -1.65625 C 4.632812 -1.5 4.820312 -1.375 5.09375 -1.28125 C 5.363281 -1.195312 5.734375 -1.125 6.203125 -1.0625 C 6.679688 -1 7.296875 -0.953125 8.046875 -0.921875 L 8.109375 -0.84375 L 8.046875 0.15625 C 7.453125 0.101562 6.742188 0.0625 5.921875 0.03125 C 5.097656 0.0078125 4.175781 0 3.15625 0 C 2.539062 0 1.925781 0.00390625 1.3125 0.015625 C 0.695312 0.0234375 0.015625 0.0703125 -0.734375 0.15625 L -0.8125 -0.890625 L -0.734375 -1 C 0.140625 -1.070312 0.832031 -1.25 1.34375 -1.53125 C 1.851562 -1.820312 2.203125 -2.179688 2.390625 -2.609375 C 2.691406 -3.359375 3.097656 -4.34375 3.609375 -5.5625 C 4.128906 -6.78125 4.695312 -8.113281 5.3125 -9.5625 C 5.925781 -11.007812 6.566406 -12.515625 7.234375 -14.078125 C 7.898438 -15.640625 8.550781 -17.140625 9.1875 -18.578125 C 9.320312 -18.910156 9.425781 -19.179688 9.5 -19.390625 C 9.582031 -19.597656 9.625 -19.773438 9.625 -19.921875 C 9.625 -20.078125 9.582031 -20.238281 9.5 -20.40625 C 9.425781 -20.570312 9.222656 -20.757812 8.890625 -20.96875 L 8.96875 -21.265625 C 9.65625 -21.367188 10.304688 -21.675781 10.921875 -22.1875 C 11.535156 -22.707031 12.101562 -23.378906 12.625 -24.203125 L 12.921875 -24.125 C 13.128906 -23.375 13.351562 -22.59375 13.59375 -21.78125 C 13.84375 -20.976562 14.132812 -20.128906 14.46875 -19.234375 C 14.875 -18.160156 15.3125 -16.96875 15.78125 -15.65625 C 16.257812 -14.34375 16.742188 -13.023438 17.234375 -11.703125 C 17.722656 -10.390625 18.179688 -9.117188 18.609375 -7.890625 C 19.046875 -6.660156 19.421875 -5.582031 19.734375 -4.65625 C 19.960938 -3.957031 20.171875 -3.394531 20.359375 -2.96875 C 20.554688 -2.550781 20.734375 -2.21875 20.890625 -1.96875 C 21.046875 -1.726562 21.191406 -1.554688 21.328125 -1.453125 C 21.472656 -1.359375 21.609375 -1.269531 21.734375 -1.1875 C 21.941406 -1.113281 22.171875 -1.046875 22.421875 -0.984375 C 22.679688 -0.921875 22.976562 -0.875 23.3125 -0.84375 L 23.421875 -0.765625 L 23.28125 0.15625 C 22.65625 0.101562 22.015625 0.0625 21.359375 0.03125 C 20.710938 0.0078125 19.992188 0 19.203125 0 L 17.8125 0 C 17.300781 0 16.769531 0.00390625 16.21875 0.015625 C 15.664062 0.0234375 15.113281 0.0390625 14.5625 0.0625 C 14.007812 0.09375 13.503906 0.125 13.046875 0.15625 L 13 -0.84375 L 13.125 -0.921875 C 14.457031 -0.972656 15.335938 -1.125 15.765625 -1.375 C 16.203125 -1.632812 16.421875 -2.070312 16.421875 -2.6875 C 16.421875 -3.050781 16.25 -3.773438 15.90625 -4.859375 C 15.5625 -5.953125 15.132812 -7.226562 14.625 -8.6875 L 14.46875 -8.84375 L 6.609375 -8.65625 Z M 7.1875 -10.15625 C 7.78125 -10.101562 8.421875 -10.070312 9.109375 -10.0625 C 9.804688 -10.050781 10.488281 -10.046875 11.15625 -10.046875 C 11.75 -10.046875 12.296875 -10.050781 12.796875 -10.0625 C 13.296875 -10.070312 13.695312 -10.101562 14 -10.15625 L 14.078125 -10.3125 C 13.898438 -10.800781 13.679688 -11.394531 13.421875 -12.09375 C 13.171875 -12.800781 12.894531 -13.550781 12.59375 -14.34375 C 12.300781 -15.144531 11.992188 -15.945312 11.671875 -16.75 C 11.347656 -17.5625 11.046875 -18.328125 10.765625 -19.046875 L 10.625 -19.046875 C 10.382812 -18.484375 10.101562 -17.820312 9.78125 -17.0625 C 9.46875 -16.300781 9.148438 -15.515625 8.828125 -14.703125 C 8.503906 -13.898438 8.195312 -13.109375 7.90625 -12.328125 C 7.613281 -11.546875 7.347656 -10.859375 7.109375 -10.265625 Z M 7.1875 -10.15625 "/></g></g></g></g><g fill="white" fill-opacity="1"><g transform="translate(25.089446, 26.030804)"><g><path d="M 2.84375 -16.578125 C 2.84375 -18.835938 2.820312 -20.519531 2.78125 -21.625 C 2.75 -22.726562 2.65625 -23.351562 2.5 -23.5 C 2.21875 -23.707031 1.84375 -23.875 1.375 -24 C 0.914062 -24.132812 0.484375 -24.210938 0.078125 -24.234375 L 0 -24.78125 L 0.078125 -24.921875 C 0.617188 -25.003906 1.179688 -25.085938 1.765625 -25.171875 C 2.359375 -25.265625 2.9375 -25.375 3.5 -25.5 C 4.0625 -25.632812 4.570312 -25.765625 5.03125 -25.890625 C 5.5 -26.015625 5.875 -26.15625 6.15625 -26.3125 L 6.609375 -25.96875 C 6.515625 -25.21875 6.425781 -24.398438 6.34375 -23.515625 C 6.269531 -22.640625 6.203125 -21.722656 6.140625 -20.765625 C 6.078125 -19.816406 6.03125 -18.863281 6 -17.90625 C 5.976562 -16.945312 5.96875 -16.019531 5.96875 -15.125 L 5.96875 -13.765625 L 6.15625 -13.734375 C 6.71875 -14.328125 7.421875 -14.851562 8.265625 -15.3125 C 9.117188 -15.769531 9.914062 -16 10.65625 -16 C 11.863281 -16 12.890625 -15.769531 13.734375 -15.3125 C 14.578125 -14.851562 15.257812 -14.253906 15.78125 -13.515625 C 16.3125 -12.785156 16.695312 -11.960938 16.9375 -11.046875 C 17.1875 -10.140625 17.3125 -9.253906 17.3125 -8.390625 C 17.3125 -7.335938 17.15625 -6.285156 16.84375 -5.234375 C 16.539062 -4.179688 16.0625 -3.226562 15.40625 -2.375 C 14.75 -1.53125 13.898438 -0.835938 12.859375 -0.296875 C 11.828125 0.234375 10.59375 0.5 9.15625 0.5 C 8.488281 0.5 7.726562 0.421875 6.875 0.265625 C 6.03125 0.109375 5.226562 -0.132812 4.46875 -0.46875 L 2.84375 0.109375 L 2.421875 -0.03125 C 2.492188 -0.519531 2.554688 -1.125 2.609375 -1.84375 C 2.660156 -2.5625 2.707031 -3.34375 2.75 -4.1875 C 2.789062 -5.039062 2.816406 -5.941406 2.828125 -6.890625 C 2.835938 -7.835938 2.84375 -8.769531 2.84375 -9.6875 Z M 5.6875 -6.8125 C 5.6875 -5.582031 5.738281 -4.648438 5.84375 -4.015625 C 5.945312 -3.390625 6.101562 -2.847656 6.3125 -2.390625 C 6.664062 -1.972656 7.148438 -1.609375 7.765625 -1.296875 C 8.378906 -0.992188 9.125 -0.84375 10 -0.84375 C 10.769531 -0.84375 11.414062 -1.03125 11.9375 -1.40625 C 12.46875 -1.78125 12.882812 -2.265625 13.1875 -2.859375 C 13.5 -3.460938 13.722656 -4.148438 13.859375 -4.921875 C 14.003906 -5.691406 14.078125 -6.488281 14.078125 -7.3125 C 14.078125 -8.257812 13.953125 -9.132812 13.703125 -9.9375 C 13.460938 -10.75 13.117188 -11.441406 12.671875 -12.015625 C 12.222656 -12.597656 11.675781 -13.046875 11.03125 -13.359375 C 10.394531 -13.679688 9.679688 -13.84375 8.890625 -13.84375 C 8.328125 -13.84375 7.78125 -13.6875 7.25 -13.375 C 6.726562 -13.070312 6.3125 -12.628906 6 -12.046875 C 5.875 -11.660156 5.789062 -11 5.75 -10.0625 C 5.707031 -9.125 5.6875 -8.039062 5.6875 -6.8125 Z M 5.6875 -6.8125 "/></g></g></g><g fill="white" fill-opacity="1"><g transform="translate(43.551716, 26.030804)"><g><path d="M 9.046875 0.15625 C 8.523438 0.125 7.882812 0.0859375 7.125 0.046875 C 6.375 0.015625 5.523438 0 4.578125 0 C 4.296875 0 3.96875 0.00390625 3.59375 0.015625 C 3.21875 0.0234375 2.851562 0.0351562 2.5 0.046875 C 2.144531 0.0664062 1.800781 0.0859375 1.46875 0.109375 C 1.132812 0.140625 0.875 0.15625 0.6875 0.15625 L 0.609375 0.03125 L 0.53125 -0.6875 L 0.609375 -0.84375 C 0.921875 -0.84375 1.300781 -0.878906 1.75 -0.953125 C 2.195312 -1.035156 2.550781 -1.191406 2.8125 -1.421875 C 2.9375 -1.546875 3.039062 -1.6875 3.125 -1.84375 C 3.21875 -2 3.285156 -2.296875 3.328125 -2.734375 C 3.367188 -3.171875 3.394531 -3.804688 3.40625 -4.640625 C 3.414062 -5.472656 3.421875 -6.644531 3.421875 -8.15625 L 3.421875 -16.578125 C 3.421875 -18.085938 3.414062 -19.269531 3.40625 -20.125 C 3.394531 -20.988281 3.367188 -21.644531 3.328125 -22.09375 C 3.285156 -22.550781 3.238281 -22.863281 3.1875 -23.03125 C 3.132812 -23.195312 3.0625 -23.34375 2.96875 -23.46875 C 2.863281 -23.570312 2.71875 -23.671875 2.53125 -23.765625 C 2.351562 -23.867188 2.160156 -23.953125 1.953125 -24.015625 C 1.753906 -24.085938 1.550781 -24.140625 1.34375 -24.171875 C 1.132812 -24.210938 0.957031 -24.234375 0.8125 -24.234375 L 0.734375 -24.78125 L 0.84375 -24.921875 C 1.332031 -25.003906 1.863281 -25.085938 2.4375 -25.171875 C 3.019531 -25.265625 3.578125 -25.375 4.109375 -25.5 C 4.648438 -25.632812 5.144531 -25.765625 5.59375 -25.890625 C 6.039062 -26.015625 6.378906 -26.15625 6.609375 -26.3125 L 6.96875 -25.921875 C 6.914062 -25.640625 6.867188 -25.144531 6.828125 -24.4375 C 6.785156 -23.738281 6.742188 -22.929688 6.703125 -22.015625 C 6.671875 -21.109375 6.640625 -20.148438 6.609375 -19.140625 C 6.585938 -18.128906 6.578125 -17.171875 6.578125 -16.265625 L 6.578125 -13.265625 L 6.765625 -13.15625 C 7.078125 -13.4375 7.429688 -13.75 7.828125 -14.09375 C 8.222656 -14.445312 8.664062 -14.769531 9.15625 -15.0625 C 9.644531 -15.351562 10.164062 -15.59375 10.71875 -15.78125 C 11.269531 -15.976562 11.835938 -16.078125 12.421875 -16.078125 C 13.753906 -16.078125 14.785156 -15.613281 15.515625 -14.6875 C 16.253906 -13.769531 16.625 -12.390625 16.625 -10.546875 C 16.625 -9.878906 16.613281 -9.160156 16.59375 -8.390625 C 16.582031 -7.617188 16.5625 -6.851562 16.53125 -6.09375 C 16.507812 -5.34375 16.492188 -4.625 16.484375 -3.9375 C 16.472656 -3.257812 16.46875 -2.691406 16.46875 -2.234375 C 16.46875 -2.054688 16.472656 -1.90625 16.484375 -1.78125 C 16.492188 -1.664062 16.566406 -1.535156 16.703125 -1.390625 C 16.898438 -1.179688 17.1875 -1.035156 17.5625 -0.953125 C 17.9375 -0.878906 18.457031 -0.84375 19.125 -0.84375 L 19.203125 -0.765625 L 19.15625 0.03125 L 19.046875 0.15625 C 18.523438 0.125 17.84375 0.0859375 17 0.046875 C 16.15625 0.015625 15.257812 0 14.3125 0 C 14.03125 0 13.707031 0.00390625 13.34375 0.015625 C 12.988281 0.0234375 12.625 0.0351562 12.25 0.046875 C 11.875 0.0664062 11.539062 0.0859375 11.25 0.109375 C 10.957031 0.140625 10.75 0.15625 10.625 0.15625 L 10.546875 0.03125 L 10.5 -0.765625 L 10.578125 -0.84375 C 10.960938 -0.84375 11.351562 -0.867188 11.75 -0.921875 C 12.144531 -0.972656 12.472656 -1.140625 12.734375 -1.421875 C 13.035156 -1.753906 13.238281 -2.515625 13.34375 -3.703125 C 13.445312 -4.898438 13.5 -6.78125 13.5 -9.34375 C 13.5 -10.957031 13.300781 -12.164062 12.90625 -12.96875 C 12.507812 -13.78125 11.75 -14.1875 10.625 -14.1875 C 10.1875 -14.1875 9.726562 -14.078125 9.25 -13.859375 C 8.78125 -13.648438 8.34375 -13.359375 7.9375 -12.984375 C 7.539062 -12.609375 7.210938 -12.171875 6.953125 -11.671875 C 6.703125 -11.171875 6.578125 -10.628906 6.578125 -10.046875 L 6.578125 -5.5 C 6.578125 -4.757812 6.582031 -4.148438 6.59375 -3.671875 C 6.601562 -3.203125 6.613281 -2.816406 6.625 -2.515625 C 6.644531 -2.222656 6.679688 -2 6.734375 -1.84375 C 6.785156 -1.6875 6.847656 -1.5625 6.921875 -1.46875 C 7.128906 -1.207031 7.414062 -1.035156 7.78125 -0.953125 C 8.15625 -0.878906 8.597656 -0.84375 9.109375 -0.84375 L 9.1875 -0.765625 L 9.15625 0.03125 Z M 9.046875 0.15625 "/></g></g></g><g fill="white" fill-opacity="1"><g transform="translate(63.206322, 26.030804)"><g><path d="M 1.078125 -14.734375 C 1.429688 -14.804688 1.867188 -14.90625 2.390625 -15.03125 C 2.921875 -15.164062 3.457031 -15.304688 4 -15.453125 C 4.539062 -15.609375 5.046875 -15.769531 5.515625 -15.9375 C 5.992188 -16.113281 6.375 -16.273438 6.65625 -16.421875 L 7.109375 -15.96875 C 7.066406 -15.582031 7.023438 -15.140625 6.984375 -14.640625 C 6.941406 -14.140625 6.90625 -13.613281 6.875 -13.0625 C 6.851562 -12.507812 6.84375 -11.9375 6.84375 -11.34375 L 6.84375 -5.5 C 6.84375 -4.757812 6.851562 -4.148438 6.875 -3.671875 C 6.90625 -3.203125 6.941406 -2.816406 6.984375 -2.515625 C 7.023438 -2.222656 7.078125 -2 7.140625 -1.84375 C 7.203125 -1.6875 7.269531 -1.5625 7.34375 -1.46875 C 7.550781 -1.175781 7.851562 -1 8.25 -0.9375 C 8.644531 -0.875 9.148438 -0.84375 9.765625 -0.84375 L 9.84375 -0.765625 L 9.8125 0.03125 L 9.6875 0.15625 L 7.578125 0.03125 C 6.734375 0.0078125 5.835938 0 4.890625 0 L 3.890625 0 L 2.765625 0.03125 L 1.6875 0.109375 C 1.332031 0.140625 1.039062 0.15625 0.8125 0.15625 L 0.6875 0.03125 L 0.65625 -0.765625 L 0.734375 -0.84375 C 1.085938 -0.84375 1.492188 -0.875 1.953125 -0.9375 C 2.421875 -1 2.78125 -1.160156 3.03125 -1.421875 C 3.164062 -1.546875 3.273438 -1.675781 3.359375 -1.8125 C 3.453125 -1.957031 3.53125 -2.160156 3.59375 -2.421875 C 3.65625 -2.679688 3.695312 -3.023438 3.71875 -3.453125 C 3.75 -3.890625 3.765625 -4.484375 3.765625 -5.234375 L 3.765625 -9.65625 C 3.765625 -10.550781 3.738281 -11.3125 3.6875 -11.9375 C 3.632812 -12.570312 3.46875 -13.03125 3.1875 -13.3125 C 2.988281 -13.5625 2.695312 -13.738281 2.3125 -13.84375 C 1.925781 -13.945312 1.515625 -14.039062 1.078125 -14.125 L 1 -14.578125 Z M 5.421875 -24.234375 C 6.015625 -24.234375 6.523438 -24.023438 6.953125 -23.609375 C 7.390625 -23.203125 7.609375 -22.691406 7.609375 -22.078125 C 7.609375 -21.441406 7.390625 -20.890625 6.953125 -20.421875 C 6.523438 -19.960938 6.015625 -19.734375 5.421875 -19.734375 C 4.835938 -19.734375 4.316406 -19.9375 3.859375 -20.34375 C 3.410156 -20.757812 3.1875 -21.285156 3.1875 -21.921875 C 3.1875 -22.535156 3.410156 -23.070312 3.859375 -23.53125 C 4.316406 -24 4.835938 -24.234375 5.421875 -24.234375 Z M 5.421875 -24.234375 "/></g></g></g><g fill="white" fill-opacity="1"><g transform="translate(73.43749, 26.030804)"><g><path d="M 10.765625 -0.84375 C 11.148438 -0.84375 11.539062 -0.867188 11.9375 -0.921875 C 12.34375 -0.972656 12.671875 -1.140625 12.921875 -1.421875 C 13.234375 -1.753906 13.457031 -2.515625 13.59375 -3.703125 C 13.738281 -4.898438 13.8125 -6.78125 13.8125 -9.34375 C 13.8125 -10.957031 13.59375 -12.164062 13.15625 -12.96875 C 12.71875 -13.78125 11.9375 -14.1875 10.8125 -14.1875 C 10.375 -14.1875 9.914062 -14.078125 9.4375 -13.859375 C 8.96875 -13.648438 8.535156 -13.359375 8.140625 -12.984375 C 7.742188 -12.609375 7.414062 -12.171875 7.15625 -11.671875 C 6.894531 -11.171875 6.765625 -10.628906 6.765625 -10.046875 L 6.765625 -5.5 C 6.765625 -4.757812 6.769531 -4.148438 6.78125 -3.671875 C 6.800781 -3.203125 6.816406 -2.816406 6.828125 -2.515625 C 6.835938 -2.222656 6.867188 -2 6.921875 -1.84375 C 6.972656 -1.6875 7.035156 -1.5625 7.109375 -1.46875 C 7.316406 -1.207031 7.613281 -1.035156 8 -0.953125 C 8.382812 -0.878906 8.832031 -0.84375 9.34375 -0.84375 L 9.390625 -0.765625 L 9.34375 0.03125 L 9.3125 0.15625 C 8.894531 0.125 8.265625 0.0859375 7.421875 0.046875 C 6.578125 0.015625 5.679688 0 4.734375 0 L 3.734375 0 L 2.609375 0.03125 C 2.253906 0.0625 1.925781 0.0859375 1.625 0.109375 C 1.332031 0.140625 1.125 0.15625 1 0.15625 L 0.96875 0.03125 L 0.890625 -0.765625 L 0.96875 -0.84375 C 1.0625 -0.84375 1.203125 -0.847656 1.390625 -0.859375 C 1.585938 -0.878906 1.789062 -0.90625 2 -0.9375 C 2.207031 -0.976562 2.40625 -1.035156 2.59375 -1.109375 C 2.789062 -1.191406 2.953125 -1.296875 3.078125 -1.421875 C 3.203125 -1.546875 3.3125 -1.691406 3.40625 -1.859375 C 3.5 -2.023438 3.566406 -2.25 3.609375 -2.53125 C 3.660156 -2.820312 3.691406 -3.175781 3.703125 -3.59375 C 3.722656 -4.019531 3.734375 -4.566406 3.734375 -5.234375 L 3.734375 -9.46875 C 3.734375 -10.363281 3.710938 -11.117188 3.671875 -11.734375 C 3.628906 -12.347656 3.484375 -12.8125 3.234375 -13.125 C 3.023438 -13.375 2.726562 -13.550781 2.34375 -13.65625 C 1.957031 -13.757812 1.546875 -13.847656 1.109375 -13.921875 L 1.03125 -14.390625 L 1.109375 -14.546875 C 1.472656 -14.597656 1.921875 -14.6875 2.453125 -14.8125 C 2.992188 -14.9375 3.535156 -15.078125 4.078125 -15.234375 C 4.617188 -15.390625 5.117188 -15.550781 5.578125 -15.71875 C 6.035156 -15.882812 6.367188 -16.046875 6.578125 -16.203125 L 6.890625 -16.046875 L 6.765625 -13.15625 L 6.921875 -13.078125 C 7.234375 -13.359375 7.585938 -13.671875 7.984375 -14.015625 C 8.378906 -14.367188 8.820312 -14.695312 9.3125 -15 C 9.800781 -15.3125 10.332031 -15.566406 10.90625 -15.765625 C 11.476562 -15.972656 12.085938 -16.078125 12.734375 -16.078125 C 14.066406 -16.078125 15.101562 -15.613281 15.84375 -14.6875 C 16.59375 -13.769531 16.96875 -12.390625 16.96875 -10.546875 C 16.96875 -9.878906 16.945312 -9.171875 16.90625 -8.421875 C 16.863281 -7.679688 16.820312 -6.941406 16.78125 -6.203125 C 16.75 -5.472656 16.71875 -4.757812 16.6875 -4.0625 C 16.664062 -3.375 16.65625 -2.765625 16.65625 -2.234375 C 16.65625 -2.054688 16.660156 -1.90625 16.671875 -1.78125 C 16.691406 -1.664062 16.765625 -1.535156 16.890625 -1.390625 C 17.097656 -1.179688 17.382812 -1.035156 17.75 -0.953125 C 18.125 -0.878906 18.644531 -0.84375 19.3125 -0.84375 L 19.390625 -0.765625 L 19.34375 0.03125 L 19.234375 0.15625 C 18.722656 0.125 18.039062 0.0859375 17.1875 0.046875 C 16.34375 0.015625 15.445312 0 14.5 0 C 14.21875 0 13.894531 0.00390625 13.53125 0.015625 C 13.175781 0.0234375 12.8125 0.0351562 12.4375 0.046875 C 12.070312 0.0664062 11.738281 0.0859375 11.4375 0.109375 C 11.144531 0.140625 10.9375 0.15625 10.8125 0.15625 L 10.734375 0.03125 L 10.6875 -0.765625 Z M 10.765625 -0.84375 "/></g></g></g><g fill="white" fill-opacity="1"><g transform="translate(93.207501, 26.030804)"><g><path d="M 15.84375 -1.3125 L 16.046875 -0.84375 L 16.046875 -0.65625 C 15.609375 -0.320312 15.070312 0.0078125 14.4375 0.34375 C 13.8125 0.675781 13.15625 0.84375 12.46875 0.84375 C 11.800781 0.84375 11.300781 0.660156 10.96875 0.296875 C 10.632812 -0.0546875 10.414062 -0.523438 10.3125 -1.109375 C 10.28125 -1.316406 10.203125 -1.421875 10.078125 -1.421875 C 10.003906 -1.421875 9.941406 -1.394531 9.890625 -1.34375 C 8.941406 -0.519531 8.082031 0.0546875 7.3125 0.390625 C 6.539062 0.722656 5.785156 0.890625 5.046875 0.890625 C 4.578125 0.890625 4.128906 0.785156 3.703125 0.578125 C 3.285156 0.367188 2.898438 0.0820312 2.546875 -0.28125 C 2.203125 -0.65625 1.925781 -1.078125 1.71875 -1.546875 C 1.519531 -2.023438 1.421875 -2.535156 1.421875 -3.078125 C 1.421875 -4.128906 1.648438 -4.957031 2.109375 -5.5625 C 2.578125 -6.164062 3.101562 -6.582031 3.6875 -6.8125 C 4 -6.96875 4.46875 -7.148438 5.09375 -7.359375 C 5.726562 -7.578125 6.378906 -7.800781 7.046875 -8.03125 C 7.710938 -8.269531 8.34375 -8.503906 8.9375 -8.734375 C 9.539062 -8.960938 9.984375 -9.15625 10.265625 -9.3125 L 10.390625 -9.546875 L 10.421875 -10.6875 L 10.421875 -10.96875 C 10.421875 -12.039062 10.179688 -12.910156 9.703125 -13.578125 C 9.234375 -14.242188 8.4375 -14.578125 7.3125 -14.578125 C 6.488281 -14.578125 5.90625 -14.453125 5.5625 -14.203125 C 5.21875 -13.960938 5.046875 -13.625 5.046875 -13.1875 C 5.046875 -12.78125 5.101562 -12.5 5.21875 -12.34375 C 5.332031 -12.195312 5.390625 -11.957031 5.390625 -11.625 C 5.390625 -10.71875 4.941406 -10.265625 4.046875 -10.265625 C 3.453125 -10.265625 2.972656 -10.4375 2.609375 -10.78125 C 2.253906 -11.132812 2.078125 -11.515625 2.078125 -11.921875 C 2.078125 -12.410156 2.320312 -12.910156 2.8125 -13.421875 C 3.300781 -13.929688 3.914062 -14.390625 4.65625 -14.796875 C 5.394531 -15.210938 6.207031 -15.550781 7.09375 -15.8125 C 7.976562 -16.070312 8.820312 -16.203125 9.625 -16.203125 C 10.820312 -16.203125 11.75 -15.859375 12.40625 -15.171875 C 13.0625 -14.492188 13.390625 -13.5 13.390625 -12.1875 C 13.359375 -11.832031 13.328125 -11.273438 13.296875 -10.515625 C 13.273438 -9.765625 13.25 -8.945312 13.21875 -8.0625 C 13.195312 -7.175781 13.179688 -6.285156 13.171875 -5.390625 C 13.160156 -4.492188 13.15625 -3.734375 13.15625 -3.109375 C 13.15625 -2.316406 13.265625 -1.757812 13.484375 -1.4375 C 13.703125 -1.125 14.003906 -0.96875 14.390625 -0.96875 C 14.585938 -0.96875 14.796875 -0.984375 15.015625 -1.015625 C 15.234375 -1.054688 15.445312 -1.15625 15.65625 -1.3125 Z M 10.265625 -7.609375 C 9.910156 -7.609375 9.515625 -7.570312 9.078125 -7.5 C 8.640625 -7.425781 8.203125 -7.320312 7.765625 -7.1875 C 7.328125 -7.0625 6.921875 -6.921875 6.546875 -6.765625 C 6.179688 -6.617188 5.894531 -6.453125 5.6875 -6.265625 C 5.300781 -5.929688 5.023438 -5.546875 4.859375 -5.109375 C 4.691406 -4.679688 4.609375 -4.222656 4.609375 -3.734375 C 4.609375 -2.910156 4.832031 -2.242188 5.28125 -1.734375 C 5.738281 -1.222656 6.234375 -0.96875 6.765625 -0.96875 C 7.253906 -0.96875 7.8125 -1.132812 8.4375 -1.46875 C 9.070312 -1.800781 9.582031 -2.207031 9.96875 -2.6875 C 10.113281 -3.019531 10.21875 -3.523438 10.28125 -4.203125 C 10.351562 -4.890625 10.390625 -5.976562 10.390625 -7.46875 Z M 10.265625 -7.609375 "/></g></g></g><g fill="white" fill-opacity="1"><g transform="translate(109.361984, 26.030804)"><g><path d="M 7.390625 0.65625 C 7.253906 0.238281 7.070312 -0.304688 6.84375 -0.984375 C 6.613281 -1.660156 6.359375 -2.320312 6.078125 -2.96875 C 5.867188 -3.445312 5.632812 -3.984375 5.375 -4.578125 C 5.125 -5.171875 4.867188 -5.753906 4.609375 -6.328125 C 4.359375 -6.898438 4.128906 -7.4375 3.921875 -7.9375 C 3.710938 -8.4375 3.546875 -8.84375 3.421875 -9.15625 C 2.984375 -10.226562 2.582031 -11.21875 2.21875 -12.125 C 1.863281 -13.039062 1.546875 -13.65625 1.265625 -13.96875 C 1.109375 -14.144531 0.925781 -14.269531 0.71875 -14.34375 C 0.519531 -14.425781 0.242188 -14.503906 -0.109375 -14.578125 L -0.265625 -14.734375 L -0.1875 -15.46875 C 0.476562 -15.414062 1.195312 -15.390625 1.96875 -15.390625 L 3.890625 -15.390625 C 4.117188 -15.390625 4.398438 -15.394531 4.734375 -15.40625 C 5.066406 -15.414062 5.410156 -15.421875 5.765625 -15.421875 C 6.128906 -15.421875 6.46875 -15.425781 6.78125 -15.4375 C 7.101562 -15.457031 7.359375 -15.46875 7.546875 -15.46875 L 7.65625 -15.421875 L 7.65625 -14.65625 L 7.546875 -14.578125 C 6.773438 -14.523438 6.226562 -14.394531 5.90625 -14.1875 C 5.582031 -13.988281 5.421875 -13.707031 5.421875 -13.34375 C 5.421875 -12.988281 5.476562 -12.671875 5.59375 -12.390625 C 5.707031 -12.109375 5.832031 -11.757812 5.96875 -11.34375 C 6.113281 -10.882812 6.316406 -10.320312 6.578125 -9.65625 C 6.835938 -8.988281 7.113281 -8.273438 7.40625 -7.515625 C 7.695312 -6.765625 7.992188 -6.007812 8.296875 -5.25 C 8.609375 -4.488281 8.90625 -3.773438 9.1875 -3.109375 C 9.425781 -3.578125 9.671875 -4.125 9.921875 -4.75 C 10.179688 -5.375 10.4375 -6.019531 10.6875 -6.6875 C 10.945312 -7.351562 11.1875 -8 11.40625 -8.625 C 11.625 -9.257812 11.8125 -9.804688 11.96875 -10.265625 C 12.113281 -10.753906 12.222656 -11.234375 12.296875 -11.703125 C 12.378906 -12.179688 12.421875 -12.601562 12.421875 -12.96875 C 12.421875 -13.601562 12.203125 -14.015625 11.765625 -14.203125 C 11.335938 -14.398438 10.671875 -14.523438 9.765625 -14.578125 L 9.6875 -14.65625 L 9.734375 -15.421875 L 9.84375 -15.46875 C 10.40625 -15.414062 11.019531 -15.390625 11.6875 -15.390625 L 13.6875 -15.390625 C 14.382812 -15.390625 15 -15.394531 15.53125 -15.40625 C 16.070312 -15.414062 16.484375 -15.4375 16.765625 -15.46875 L 16.84375 -14.8125 L 16.765625 -14.65625 C 16.285156 -14.601562 15.910156 -14.453125 15.640625 -14.203125 C 15.367188 -13.960938 15.117188 -13.675781 14.890625 -13.34375 C 14.523438 -12.863281 14 -11.765625 13.3125 -10.046875 C 12.945312 -9.191406 12.5 -8.125 11.96875 -6.84375 C 11.445312 -5.5625 10.894531 -4.242188 10.3125 -2.890625 C 10.03125 -2.242188 9.796875 -1.707031 9.609375 -1.28125 C 9.429688 -0.863281 9.253906 -0.410156 9.078125 0.078125 C 8.953125 0.253906 8.707031 0.410156 8.34375 0.546875 C 7.988281 0.691406 7.722656 0.765625 7.546875 0.765625 Z M 7.390625 0.65625 "/></g></g></g><g clip-path="url(#e81ea5a3a3)"><g fill="white" fill-opacity="1"><g transform="translate(125.824162, 26.030804)"><g><path d="M 4.34375 -4.546875 C 5.039062 -4.546875 5.625 -4.289062 6.09375 -3.78125 C 6.570312 -3.28125 6.8125 -2.675781 6.8125 -1.96875 C 6.8125 -1.269531 6.570312 -0.671875 6.09375 -0.171875 C 5.625 0.328125 5.039062 0.578125 4.34375 0.578125 C 3.601562 0.578125 2.988281 0.328125 2.5 -0.171875 C 2.007812 -0.671875 1.765625 -1.269531 1.765625 -1.96875 C 1.765625 -2.675781 2.007812 -3.28125 2.5 -3.78125 C 2.988281 -4.289062 3.601562 -4.546875 4.34375 -4.546875 Z M 4.34375 -4.546875 "/></g></g></g></g></svg>